<svg width="15" height="15" viewBox="0 0 15 15" fill="none" xmlns="http://www.w3.org/2000/svg">
<path d="M11.0003 6.66622L8.33368 3.99955M0.666992 14.3329L2.92324 14.0822C3.1989 14.0516 3.33673 14.0362 3.46556 13.9945C3.57985 13.9575 3.68862 13.9053 3.78892 13.8391C3.90196 13.7646 4.00002 13.6665 4.19614 13.4704L13.0003 4.66622C13.7367 3.92984 13.7367 2.73593 13.0003 1.99955C12.264 1.26317 11.0701 1.26317 10.3337 1.99955L1.52948 10.8037C1.33336 10.9999 1.2353 11.0979 1.16075 11.211C1.09461 11.3113 1.04234 11.42 1.00533 11.5343C0.963629 11.6632 0.948315 11.801 0.917686 12.0766L0.666992 14.3329Z" stroke="currentColor" stroke-linecap="round" stroke-linejoin="round"/>
</svg>
