<svg width="24" height="24" viewBox="0 0 24 24" fill="none" xmlns="http://www.w3.org/2000/svg">
<path id="Vector" d="M12 20C12 20.5523 12.4477 21 13 21C13.5523 21 14 20.5523 14 20H12ZM8 9C7.44772 9 7 9.44772 7 10C7 10.5523 7.44772 11 8 11V9ZM14 20V10.7H12V20H14ZM12.3 9H8V11H12.3V9ZM12.8996 4.9C12.8996 4.84477 12.9444 4.8 12.9996 4.8V6.8C14.049 6.8 14.8996 5.94934 14.8996 4.9H12.8996ZM12.9996 4.8C13.0548 4.8 13.0996 4.84477 13.0996 4.9H11.0996C11.0996 5.94934 11.9503 6.8 12.9996 6.8V4.8ZM13.0996 4.9C13.0996 4.95523 13.0548 5 12.9996 5V3C11.9503 3 11.0996 3.85066 11.0996 4.9H13.0996ZM12.9996 5C12.9444 5 12.8996 4.95523 12.8996 4.9H14.8996C14.8996 3.85066 14.049 3 12.9996 3V5ZM14 10.7C14 9.76112 13.2389 9 12.3 9V11C12.1343 11 12 10.8657 12 10.7H14Z" fill="currentColor"/>
</svg>
