<svg xmlns="http://www.w3.org/2000/svg" width="200" height="202" viewBox="0 0 200 202" fill="none">
<circle cx="100" cy="102" r="100" fill="#002366"/>
<path d="M46.1732 17.2639H157.253C161.119 17.2639 164.253 20.3979 164.253 24.2639V132.875C164.253 136.741 161.119 139.875 157.253 139.875H7.60354C2.70922 128.077 0.0078125 115.139 0.0078125 101.571C0.0078125 66.1569 18.4098 35.0411 46.1732 17.2639Z" fill="#53BEFF"/>
<path d="M30.887 29.2896H149.325C152.639 29.2896 155.325 31.9758 155.325 35.2896V121.85C155.325 125.163 152.639 127.85 149.325 127.85H3.49519C1.2213 119.475 0.0078125 110.665 0.0078125 101.571C0.0078125 73.1519 11.8582 47.5008 30.887 29.2896Z" fill="#CDEBFE"/>
<path d="M22.7698 71.9451C33.1885 61.5264 47.3194 55.6732 62.0537 55.6732C76.7881 55.6732 90.9189 61.5263 101.338 71.9451C102.509 73.1167 104.409 73.1167 105.58 71.9451C106.752 70.7735 106.752 68.874 105.58 67.7025C94.0363 56.1585 78.3794 49.6732 62.0537 49.6732C45.7281 49.6732 30.0711 56.1585 18.5271 67.7025C17.3555 68.874 17.3555 70.7735 18.5271 71.9451C19.6987 73.1167 21.5982 73.1167 22.7698 71.9451Z" fill="#53BEFF"/>
<path d="M32.2287 81.4033C40.139 73.4929 50.8678 69.0489 62.0547 69.0489C73.2416 69.0489 83.9703 73.4929 91.8807 81.4032C93.0523 82.5748 94.9518 82.5748 96.1233 81.4032C97.2949 80.2317 97.2949 78.3322 96.1233 77.1606C87.0878 68.125 74.8329 63.0489 62.0547 63.0489C49.2765 63.0489 37.0216 68.125 27.9861 77.1606C26.8145 78.3322 26.8145 80.2317 27.9861 81.4033C29.1576 82.5748 31.0571 82.5748 32.2287 81.4033Z" fill="#53BEFF"/>
<path d="M62.055 82.3062C54.3842 82.3062 47.0276 85.3534 41.6035 90.7775C40.4319 91.9491 38.5324 91.9491 37.3608 90.7775C36.1893 89.6059 36.1893 87.7064 37.3608 86.5349C43.9102 79.9855 52.7929 76.3062 62.055 76.3062C71.3172 76.3062 80.2 79.9855 86.7493 86.5349C87.9208 87.7064 87.9208 89.6059 86.7493 90.7775C85.5777 91.9491 83.6782 91.9491 82.5066 90.7775C77.0825 85.3534 69.7259 82.3062 62.055 82.3062Z" fill="#53BEFF"/>
<path d="M47.8562 94.9909C45.561 96.5263 45.581 99.742 47.5337 101.695L58.5194 112.68C60.472 114.633 63.6378 114.633 65.5905 112.68L76.5762 101.695C78.5288 99.742 78.5489 96.5263 76.2536 94.9909C72.0824 92.2006 67.1471 90.6797 62.0549 90.6797C56.9628 90.6797 52.0274 92.2006 47.8562 94.9909Z" fill="#53BEFF"/>
<path d="M99.7457 201.606C58.1929 201.486 22.6002 176.031 7.60156 139.875H158.853C162.222 139.875 165.366 141.572 167.214 144.39L195.936 188.175C196.343 188.796 196.551 189.464 196.591 190.124H196.643V197.606C196.643 199.815 194.852 201.606 192.643 201.606L99.7457 201.606Z" fill="#53BEFF"/>
<g opacity="0.3">
<path d="M25.9002 168.731C19.4807 161.648 14.062 153.642 9.86719 144.935H149.119C150.936 144.935 152.61 145.921 153.491 147.509L163.618 165.76C164.357 167.093 163.393 168.731 161.869 168.731H25.9002Z" fill="#005C94"/>
<path d="M51.9484 189.309C43.7368 184.798 36.2269 179.168 29.6243 172.625C30.1332 172.452 30.6741 172.36 31.2284 172.36H92.8771C94.7198 172.36 96.4131 173.374 97.2838 174.998L103.377 186.364C104.092 187.696 103.127 189.309 101.615 189.309H51.9484Z" fill="#005C94"/>
</g>
<path d="M76.2266 25.5806C77.6073 25.5806 78.7266 24.4613 78.7266 23.0806C78.7266 21.6999 77.6073 20.5806 76.2266 20.5806C74.8458 20.5806 73.7266 21.6999 73.7266 23.0806C73.7266 24.4613 74.8458 25.5806 76.2266 25.5806Z" fill="#002366"/>
<path d="M47.375 21.5806C46.5466 21.5806 45.875 22.2521 45.875 23.0806C45.875 23.909 46.5466 24.5806 47.375 24.5806H68.4561C69.2845 24.5806 69.9561 23.909 69.9561 23.0806C69.9561 22.2521 69.2845 21.5806 68.4561 21.5806H47.375Z" fill="#002366"/>
<rect x="123.742" y="2" width="67.3904" height="67.3904" rx="33.6952" fill="#FF6700" stroke="white" stroke-width="4"/>
<path d="M167.178 20.2968C168.741 18.7347 171.273 18.7347 172.835 20.2968C174.397 21.8589 174.397 24.3916 172.835 25.9537L163.095 35.6941L172.837 45.4365C174.399 46.9986 174.399 49.5313 172.837 51.0934C171.275 52.6555 168.743 52.6555 167.18 51.0934L157.438 41.3509L147.696 51.0934C146.134 52.6555 143.601 52.6555 142.039 51.0934C140.477 49.5313 140.477 46.9986 142.039 45.4365L151.781 35.6941L142.041 25.9537C140.479 24.3916 140.479 21.8589 142.041 20.2968C143.603 18.7347 146.136 18.7347 147.698 20.2968L157.438 30.0372L167.178 20.2968Z" fill="#CC2601"/>
</svg>