<svg width="10" height="10" viewBox="0 0 10 10" fill="none" xmlns="http://www.w3.org/2000/svg">
<path d="M9.78033 1.27764C10.0732 0.984751 10.0732 0.509878 9.78033 0.216984C9.48744 -0.0759088 9.01256 -0.0759088 8.71967 0.216984L0.21967 8.71698C-0.0732233 9.00988 -0.0732233 9.48475 0.21967 9.77764C0.512563 10.0705 0.987437 10.0705 1.28033 9.77764L9.78033 1.27764Z" fill="currentColor"/>
<path d="M9.7801 6.28009C10.073 5.98719 10.073 5.51232 9.7801 5.21943C9.48721 4.92653 9.01233 4.92653 8.71944 5.21943L5.21918 8.71968C4.92629 9.01258 4.92629 9.48745 5.21918 9.78034C5.51207 10.0732 5.98695 10.0732 6.27984 9.78034L9.7801 6.28009Z" fill="currentColor"/>
</svg>
